<?xml version="1.0" encoding="utf-8"?>
<svg version="1.2" baseProfile="tiny" id="Layer_1" xmlns="http://www.w3.org/2000/svg" xmlns:xlink="http://www.w3.org/1999/xlink"
	 x="0px" y="0px" width="2500" height="532" viewBox="250 250 500 500" xml:space="preserve">
<g id="Layer_2">
	<path fill="#EE2842" d="M937.304,464.605c-0.846-0.061-1.499-0.765-1.499-1.613v-10.366h-2.994c-0.701,0-1.267-0.568-1.267-1.269
		l0,0c-0.064-0.695,0.449-1.313,1.146-1.375c0.041-0.004,0.079-0.005,0.12-0.005h8.985c0.764,0,1.383,0.618,1.383,1.381l0,0
		c-0.061,0.719-0.662,1.271-1.383,1.269h-2.994v10.366C938.803,463.841,938.148,464.545,937.304,464.605z M959.536,464.605
		c-0.891,0-1.613-0.723-1.613-1.613v-8.985l-3.801,10.021c-0.002,0.446-0.365,0.807-0.81,0.805c-0.442,0-0.802-0.36-0.804-0.805
		l-3.916-10.021v8.985c0.066,0.824-0.55,1.547-1.374,1.612c-0.002,0-0.006,0.001-0.01,0.001c-0.89,0-1.611-0.723-1.611-1.613
		v-10.713c0-1.399,1.134-2.533,2.534-2.533l0,0c1.022,0.022,1.932,0.658,2.305,1.611l2.878,7.604l2.88-7.604
		c0.373-0.953,1.282-1.589,2.306-1.611c1.399,0,2.533,1.134,2.533,2.533l0,0v10.713
		C961.035,463.841,960.381,464.545,959.536,464.605z"/>
	<path fill="#EE2842" d="M148.461,445.252c0.011-4.947,1.539-9.771,4.377-13.822c-8.416,2.445-14.225,10.129-14.285,18.891v15.896
		h9.907V445.252z"/>
	<path fill="#EE2842" d="M138.554,554.34c0.047,8.796,5.851,16.518,14.285,19.007c-2.85-4.13-4.376-9.031-4.377-14.054v-29.72
		h-9.907V554.34z"/>
	<path fill="#EE2842" d="M163.321,529.573h-9.907v29.72c0.047,8.795,5.851,16.518,14.284,19.007
		c-2.85-4.13-4.375-9.031-4.376-14.054v-34.555V529.573z"/>
	<path fill="#EE2842" d="M163.321,440.414c-0.013-4.986,1.516-9.854,4.376-13.938c-8.374,2.434-14.173,10.057-14.284,18.776v21.657
		h9.907V440.414z"/>
	<path fill="#EE2842" d="M51.583,433.733c-7.563,4.53-12.165,12.725-12.095,21.541v93.653c0.005,8.707,4.603,16.761,12.095,21.193
		c-1.473-3.658-2.216-7.571-2.188-11.517V445.252C49.367,441.308,50.11,437.394,51.583,433.733z"/>
	<path fill="#EE2842" d="M64.255,435.461c-0.049-3.958,0.737-7.882,2.304-11.519c-7.572,4.425-12.222,12.541-12.211,21.31v114.041
		c0.056,10.326,6.54,19.52,16.243,23.041c-4.148-5.155-6.387-11.587-6.336-18.203V435.461z"/>
	<path fill="#EE2842" d="M188.088,420.601c-10.943,0-19.814,8.871-19.814,19.813l0,0v32.255l-49.533-2.535v-34.557
		c0-13.68-11.088-24.767-24.766-24.767c-13.679,0-24.768,11.087-24.768,24.767v128.669c0,13.682,11.088,24.767,24.768,24.767
		c13.678,0,24.766-11.085,24.766-24.767l0,0V524.62h49.533v39.626c0.006,10.945,8.881,19.811,19.824,19.803
		c10.935-0.003,19.797-8.869,19.803-19.803V440.414C207.9,429.472,199.029,420.601,188.088,420.601z"/>
	<path fill="#EE2842" d="M359.149,541.208v-36.631H305.7v36.631c0,3.964-3.18,7.194-7.142,7.258c-4.027,0-7.309-3.23-7.372-7.258
		v-83.629c0.061-3.983,3.275-7.195,7.257-7.257c4.008,0,7.257,3.249,7.257,7.257v33.75h53.449v-34.556
		c0-4.009,3.249-7.257,7.258-7.257c4.008,0,7.256,3.249,7.256,7.257v83.631c0,4.005-3.249,7.254-7.256,7.254
		c-4.009,0-7.258-3.249-7.258-7.254V541.208z"/>
	<path fill="#EE2842" d="M383.916,512.643c-1.116-19.565,13.838-36.328,33.4-37.443c19.563-1.117,36.328,13.837,37.443,33.401
		c0.077,1.346,0.077,2.695,0,4.042c1.117,19.56-13.838,36.324-33.4,37.441c-19.563,1.114-36.327-13.84-37.443-33.4
		C383.839,515.334,383.839,513.988,383.916,512.643z M441.512,512.643c1.516-11.994-6.977-22.945-18.969-24.461
		c-11.993-1.516-22.944,6.978-24.458,18.97c-0.23,1.821-0.23,3.665,0,5.491c-1.96,11.992,6.173,23.299,18.165,25.261
		c11.993,1.959,23.303-6.173,25.262-18.166C441.897,517.389,441.897,514.991,441.512,512.643z"/>
	<path fill="#EE2842" d="M530.557,476.009c18.505-0.581,33.977,13.947,34.559,32.451c0.021,0.701,0.021,1.405,0,2.106
		c0,3.916-2.765,6.221-7.717,6.221h-48.152c0.683,12.546,11.291,22.23,23.846,21.773c6.243-0.03,12.322-2.003,17.393-5.646
		c0.854-0.55,1.871-0.793,2.881-0.689c2.861-0.06,5.229,2.216,5.287,5.078c0.036,1.811-0.877,3.511-2.406,4.48
		c-7.153,5.086-15.764,7.715-24.537,7.49c-19.063,0.933-35.275-13.763-36.209-32.825c-0.066-1.347-0.054-2.696,0.038-4.038
		c-0.83-19.386,14.214-35.772,33.601-36.603c0.318-0.015,0.638-0.024,0.959-0.027L530.557,476.009z M509.132,507.571h42.736
		c0.133-11.387-8.989-20.727-20.377-20.858c-0.312-0.004-0.624,0-0.935,0.009C518.945,486.718,509.443,495.965,509.132,507.571z"/>
	<path fill="#EE2842" d="M572.947,542.016v-85.243c-0.063-3.563,2.773-6.503,6.334-6.566c0.078-0.002,0.154-0.002,0.232,0
		c3.602,0.061,6.506,2.965,6.566,6.566v85.243c-0.063,3.581-2.984,6.45-6.566,6.45c-3.563,0.063-6.502-2.773-6.564-6.336
		C572.947,542.093,572.947,542.053,572.947,542.016z"/>
	<path fill="#EE2842" d="M594.373,537.406c-0.063-3.05,2.359-5.58,5.412-5.643c0.078-0.004,0.155-0.004,0.232,0
		c1.156,0.007,2.283,0.368,3.227,1.036c5.725,4.196,12.602,6.531,19.697,6.683c9.907,0,15.09-4.149,15.09-10.023
		c0-5.875-7.947-9.33-16.932-11.521c-11.52-2.762-25.805-5.988-25.805-21.078c0-11.519,9.561-20.734,26.727-20.734
		c8.262-0.143,16.348,2.406,23.037,7.257c1.443,0.989,2.307,2.626,2.305,4.378c-0.063,2.9-2.398,5.236-5.299,5.298
		c-1.047-0.024-2.059-0.388-2.881-1.037c-5.049-3.561-11.102-5.415-17.279-5.299c-8.869,0-14.398,3.457-14.398,9.102
		c0,5.644,7.603,8.179,16.243,10.137c12.21,2.766,26.724,6.104,26.724,22.23c0,11.521-9.906,21.426-28.338,21.426
		c-9.123,0.313-18.088-2.445-25.456-7.833c-1.538-1.036-2.481-2.751-2.536-4.606L594.373,537.406z"/>
	<path fill="#EE2842" d="M667.867,531.303c4.955,0.059,8.977,4.03,9.1,8.983c0,5.026-4.072,9.102-9.1,9.102
		c-5.025,0-9.102-4.075-9.102-9.102C658.829,535.308,662.886,531.303,667.867,531.303z"/>
	<path fill="#EE2842" d="M744.701,512.643c-0.007-19.533,15.819-35.373,35.35-35.38c19.53-0.008,35.369,15.818,35.379,35.35
		c0,0.008,0,0.019,0,0.03c0.007,19.53-15.819,35.369-35.352,35.377c-19.53,0.007-35.369-15.821-35.377-35.352
		C744.701,512.661,744.701,512.649,744.701,512.643z M802.297,512.643c1.517-11.994-6.977-22.945-18.97-24.461
		c-11.992-1.516-22.941,6.978-24.457,18.97c-0.23,1.821-0.23,3.665,0,5.491c-1.96,11.992,6.173,23.299,18.164,25.261
		c11.992,1.959,23.303-6.173,25.263-18.166C802.681,517.389,802.681,514.991,802.297,512.643z"/>
	<path fill="#EE2842" d="M923.48,497.204v44.812c-0.124,3.6-3.079,6.453-6.681,6.45c-3.519-0.063-6.338-2.932-6.336-6.45v-40.895
		c0-8.178-3.688-11.52-12.212-11.52c-8.522,0-14.053,7.488-17.854,12.557v39.857c-0.479,3.596-3.781,6.118-7.376,5.639
		c-2.937-0.391-5.249-2.703-5.64-5.639v-40.895c0-8.178-3.572-11.52-12.327-11.52c-6.91,0-13.707,8.524-17.163,13.593v38.821
		c-0.063,3.581-2.985,6.45-6.565,6.45c-3.563,0-6.452-2.888-6.452-6.45v-58.519c0-3.519,2.819-6.388,6.336-6.45
		c3.603-0.002,6.559,2.851,6.682,6.45v4.146c5.584-7.075,14.028-11.298,23.038-11.519c8.77-1.027,16.999,4.425,19.468,12.901
		c5.267-7.654,13.765-12.455,23.04-13.018c12.901,0,19.698,7.143,19.698,21.195H923.48z"/>
	<path fill="#EE2842" d="M716.018,476.009c8.215-0.325,16.233,2.568,22.348,8.065c1.243,1.126,1.988,2.699,2.073,4.377
		c0.064,3.243-2.514,5.925-5.757,5.989h-0.002c-1.492,0.066-2.944-0.474-4.032-1.497c-3.823-3.593-8.927-5.503-14.169-5.3
		c-12.723-0.046-23.074,10.231-23.121,22.956c-0.004,0.682,0.024,1.36,0.084,2.043c-1.275,12.66,7.957,23.952,20.618,25.225
		c0.804,0.081,1.611,0.121,2.419,0.117c11.333-1.157,21.266-8.083,26.265-18.316c1.04-1.947,2.194-3.832,3.455-5.646
		c2.073-2.762,3.57-1.497,4.839,0c2.1,3.278,2.402,7.395,0.806,10.945c-2.936,5.761-6.83,10.982-11.519,15.438
		c-6.537,6.059-15.163,9.363-24.076,9.212c-19.075,0.616-35.039-14.35-35.655-33.423c-0.037-1.146-0.017-2.294,0.061-3.437
		c-1.154-19.053,13.354-35.432,32.403-36.586c1.063-0.064,2.127-0.081,3.191-0.046L716.018,476.009z"/>
	<path fill="#EE2842" d="M504.869,537.406c0,2.419-7.143,7.95-12.211,10.484c-3.137,1.441-6.573,2.112-10.021,1.958
		c-8.403,0.995-16.022-5.008-17.018-13.413c-0.166-1.401-0.138-2.817,0.084-4.211v-43.084h-6.682
		c-3.155-0.061-5.697-2.604-5.759-5.759c0.122-3.11,2.648-5.587,5.759-5.644h6.682v-13.363c0.063-3.58,2.984-6.452,6.566-6.452
		c3.582,0,6.503,2.872,6.566,6.452v13.363h9.906c3.182,0,5.76,2.577,5.76,5.759c0,3.181-2.579,5.76-5.76,5.76h-9.1v40.088
		c0,4.952,2.304,8.64,6.795,8.64c7.949,0,14.285-12.442,17.741-12.442c3.455,0,1.267,8.294,1.267,11.521L504.869,537.406z"/>
</g>
</svg>