<svg width="24" height="18" viewBox="0 0 24 18" fill="none" xmlns="http://www.w3.org/2000/svg">
<rect width="24" height="16.5" fill="#EEF3F8"/>
<rect width="13.5" height="10.5" fill="#41479B"/>
<rect x="13.5" width="10.5" height="1.5" fill="#DC251C"/>
<rect x="13.5" y="3" width="10.5" height="1.5" fill="#DC251C"/>
<rect x="13.5" y="6" width="10.5" height="1.5" fill="#DC251C"/>
<rect x="13.5" y="9" width="10.5" height="1.5" fill="#DC251C"/>
<rect y="12" width="24" height="1.5" fill="#DC251C"/>
<rect y="15" width="24" height="1.5" fill="#DC251C"/>
<rect x="1.5" y="1.5" width="1.5" height="1.5" fill="#C5D0EC"/>
<rect x="4.5" y="1.5" width="1.5" height="1.5" fill="#C5D0EC"/>
<rect x="7.5" y="1.5" width="1.5" height="1.5" fill="#C5D0EC"/>
<rect x="10.5" y="1.5" width="1.5" height="1.5" fill="#C5D0EC"/>
<rect x="1.5" y="4.5" width="1.5" height="1.5" fill="#C5D0EC"/>
<rect x="4.5" y="4.5" width="1.5" height="1.5" fill="#C5D0EC"/>
<rect x="7.5" y="4.5" width="1.5" height="1.5" fill="#C5D0EC"/>
<rect x="3" y="6" width="1.5" height="1.5" fill="#C5D0EC"/>
<rect x="6" y="6" width="1.5" height="1.5" fill="#C5D0EC"/>
<rect x="9" y="6" width="1.5" height="1.5" fill="#C5D0EC"/>
<rect x="3" y="3" width="1.5" height="1.5" fill="#C5D0EC"/>
<rect x="6" y="3" width="1.5" height="1.5" fill="#C5D0EC"/>
<rect x="9" y="3" width="1.5" height="1.5" fill="#C5D0EC"/>
<rect x="10.5" y="4.5" width="1.5" height="1.5" fill="#C5D0EC"/>
<rect x="1.5" y="7.5" width="1.5" height="1.5" fill="#C5D0EC"/>
<rect x="4.5" y="7.5" width="1.5" height="1.5" fill="#C5D0EC"/>
<rect x="7.5" y="7.5" width="1.5" height="1.5" fill="#C5D0EC"/>
<rect x="10.5" y="7.5" width="1.5" height="1.5" fill="#C5D0EC"/>
</svg>
